<svg width="70" height="70" viewBox="0 0 70 70" fill="none" xmlns="http://www.w3.org/2000/svg">
<circle cx="35" cy="35" r="33.5" stroke="#F18A4A" stroke-width="3"/>
<mask id="path-2-outside-1_4004_87" maskUnits="userSpaceOnUse" x="22" y="10" width="26" height="13" fill="black">
<rect fill="white" x="22" y="10" width="26" height="13"/>
<path d="M28.1592 19.7734L30.6714 11.3359H33.1177L29.4043 22H27.793L28.1592 19.7734ZM25.8447 11.3359L28.3496 19.7734L28.7305 22H27.1045L23.4131 11.3359H25.8447ZM36.4502 11.3359V22H34.2603V11.3359H36.4502ZM43.0566 11.3359V22H40.8667V11.3359H43.0566ZM46.3379 11.3359V13.0571H37.6367V11.3359H46.3379Z"/>
</mask>
<path d="M28.1592 19.7734L30.6714 11.3359H33.1177L29.4043 22H27.793L28.1592 19.7734ZM25.8447 11.3359L28.3496 19.7734L28.7305 22H27.1045L23.4131 11.3359H25.8447ZM36.4502 11.3359V22H34.2603V11.3359H36.4502ZM43.0566 11.3359V22H40.8667V11.3359H43.0566ZM46.3379 11.3359V13.0571H37.6367V11.3359H46.3379Z" fill="#F18A4A"/>
<path d="M28.1592 19.7734L27.2008 19.4881L27.1827 19.5487L27.1724 19.6111L28.1592 19.7734ZM30.6714 11.3359V10.3359H29.9257L29.713 11.0506L30.6714 11.3359ZM33.1177 11.3359L34.0621 11.6648L34.5248 10.3359H33.1177V11.3359ZM29.4043 22V23H30.115L30.3487 22.3288L29.4043 22ZM27.793 22L26.8062 21.8377L26.6151 23H27.793V22ZM25.8447 11.3359L26.8034 11.0513L26.591 10.3359H25.8447V11.3359ZM28.3496 19.7734L29.3353 19.6048L29.3252 19.546L29.3083 19.4888L28.3496 19.7734ZM28.7305 22V23H29.916L29.7162 21.8314L28.7305 22ZM27.1045 22L26.1595 22.3271L26.3924 23H27.1045V22ZM23.4131 11.3359V10.3359H22.0087L22.4681 11.663L23.4131 11.3359ZM29.1176 20.0588L31.6298 11.6213L29.713 11.0506L27.2008 19.4881L29.1176 20.0588ZM30.6714 12.3359H33.1177V10.3359H30.6714V12.3359ZM32.1733 11.0071L28.4599 21.6712L30.3487 22.3288L34.0621 11.6648L32.1733 11.0071ZM29.4043 21H27.793V23H29.4043V21ZM28.7797 22.1623L29.1459 19.9357L27.1724 19.6111L26.8062 21.8377L28.7797 22.1623ZM24.8861 11.6205L27.391 20.058L29.3083 19.4888L26.8034 11.0513L24.8861 11.6205ZM27.3639 19.942L27.7448 22.1686L29.7162 21.8314L29.3353 19.6048L27.3639 19.942ZM28.7305 21H27.1045V23H28.7305V21ZM28.0495 21.6729L24.3581 11.0088L22.4681 11.663L26.1595 22.3271L28.0495 21.6729ZM23.4131 12.3359H25.8447V10.3359H23.4131V12.3359ZM36.4502 11.3359H37.4502V10.3359H36.4502V11.3359ZM36.4502 22V23H37.4502V22H36.4502ZM34.2603 22H33.2603V23H34.2603V22ZM34.2603 11.3359V10.3359H33.2603V11.3359H34.2603ZM35.4502 11.3359V22H37.4502V11.3359H35.4502ZM36.4502 21H34.2603V23H36.4502V21ZM35.2603 22V11.3359H33.2603V22H35.2603ZM34.2603 12.3359H36.4502V10.3359H34.2603V12.3359ZM43.0566 11.3359H44.0566V10.3359H43.0566V11.3359ZM43.0566 22V23H44.0566V22H43.0566ZM40.8667 22H39.8667V23H40.8667V22ZM40.8667 11.3359V10.3359H39.8667V11.3359H40.8667ZM46.3379 11.3359H47.3379V10.3359H46.3379V11.3359ZM46.3379 13.0571V14.0571H47.3379V13.0571H46.3379ZM37.6367 13.0571H36.6367V14.0571H37.6367V13.0571ZM37.6367 11.3359V10.3359H36.6367V11.3359H37.6367ZM42.0566 11.3359V22H44.0566V11.3359H42.0566ZM43.0566 21H40.8667V23H43.0566V21ZM41.8667 22V11.3359H39.8667V22H41.8667ZM40.8667 12.3359H43.0566V10.3359H40.8667V12.3359ZM45.3379 11.3359V13.0571H47.3379V11.3359H45.3379ZM46.3379 12.0571H37.6367V14.0571H46.3379V12.0571ZM38.6367 13.0571V11.3359H36.6367V13.0571H38.6367ZM37.6367 12.3359H46.3379V10.3359H37.6367V12.3359Z" fill="black" mask="url(#path-2-outside-1_4004_87)"/>
<mask id="path-4-outside-2_4004_87" maskUnits="userSpaceOnUse" x="24" y="28" width="22" height="27" fill="black">
<rect fill="white" x="24" y="28" width="22" height="27"/>
<path d="M39.75 45.4531H44.4219C44.3281 46.9844 43.9062 48.3438 43.1562 49.5312C42.4167 50.7188 41.3802 51.6458 40.0469 52.3125C38.724 52.9792 37.1302 53.3125 35.2656 53.3125C33.8073 53.3125 32.5 53.0625 31.3438 52.5625C30.1875 52.0521 29.1979 51.3229 28.375 50.375C27.5625 49.4271 26.9427 48.2812 26.5156 46.9375C26.0885 45.5938 25.875 44.0885 25.875 42.4219V40.8438C25.875 39.1771 26.0938 37.6719 26.5312 36.3281C26.9792 34.974 27.6146 33.8229 28.4375 32.875C29.2708 31.9271 30.2656 31.1979 31.4219 30.6875C32.5781 30.1771 33.8698 29.9219 35.2969 29.9219C37.1927 29.9219 38.7917 30.2656 40.0938 30.9531C41.4062 31.6406 42.4219 32.5885 43.1406 33.7969C43.8698 35.0052 44.3073 36.3802 44.4531 37.9219H39.7656C39.7135 37.0052 39.5312 36.2292 39.2188 35.5938C38.9062 34.9479 38.4323 34.4635 37.7969 34.1406C37.1719 33.8073 36.3385 33.6406 35.2969 33.6406C34.5156 33.6406 33.8333 33.7865 33.25 34.0781C32.6667 34.3698 32.1771 34.8125 31.7812 35.4062C31.3854 36 31.0885 36.75 30.8906 37.6562C30.7031 38.5521 30.6094 39.6042 30.6094 40.8125V42.4219C30.6094 43.599 30.6979 44.6354 30.875 45.5312C31.0521 46.4167 31.3229 47.1667 31.6875 47.7812C32.0625 48.3854 32.5417 48.8438 33.125 49.1562C33.7188 49.4583 34.4323 49.6094 35.2656 49.6094C36.2448 49.6094 37.0521 49.4531 37.6875 49.1406C38.3229 48.8281 38.8073 48.3646 39.1406 47.75C39.4844 47.1354 39.6875 46.3698 39.75 45.4531Z"/>
</mask>
<path d="M39.75 45.4531H44.4219C44.3281 46.9844 43.9062 48.3438 43.1562 49.5312C42.4167 50.7188 41.3802 51.6458 40.0469 52.3125C38.724 52.9792 37.1302 53.3125 35.2656 53.3125C33.8073 53.3125 32.5 53.0625 31.3438 52.5625C30.1875 52.0521 29.1979 51.3229 28.375 50.375C27.5625 49.4271 26.9427 48.2812 26.5156 46.9375C26.0885 45.5938 25.875 44.0885 25.875 42.4219V40.8438C25.875 39.1771 26.0938 37.6719 26.5312 36.3281C26.9792 34.974 27.6146 33.8229 28.4375 32.875C29.2708 31.9271 30.2656 31.1979 31.4219 30.6875C32.5781 30.1771 33.8698 29.9219 35.2969 29.9219C37.1927 29.9219 38.7917 30.2656 40.0938 30.9531C41.4062 31.6406 42.4219 32.5885 43.1406 33.7969C43.8698 35.0052 44.3073 36.3802 44.4531 37.9219H39.7656C39.7135 37.0052 39.5312 36.2292 39.2188 35.5938C38.9062 34.9479 38.4323 34.4635 37.7969 34.1406C37.1719 33.8073 36.3385 33.6406 35.2969 33.6406C34.5156 33.6406 33.8333 33.7865 33.25 34.0781C32.6667 34.3698 32.1771 34.8125 31.7812 35.4062C31.3854 36 31.0885 36.75 30.8906 37.6562C30.7031 38.5521 30.6094 39.6042 30.6094 40.8125V42.4219C30.6094 43.599 30.6979 44.6354 30.875 45.5312C31.0521 46.4167 31.3229 47.1667 31.6875 47.7812C32.0625 48.3854 32.5417 48.8438 33.125 49.1562C33.7188 49.4583 34.4323 49.6094 35.2656 49.6094C36.2448 49.6094 37.0521 49.4531 37.6875 49.1406C38.3229 48.8281 38.8073 48.3646 39.1406 47.75C39.4844 47.1354 39.6875 46.3698 39.75 45.4531Z" fill="#F18A4A"/>
<path d="M39.75 45.4531V44.4531H38.8159L38.7523 45.3851L39.75 45.4531ZM44.4219 45.4531L45.42 45.5142L45.485 44.4531H44.4219V45.4531ZM43.1562 49.5312L42.3107 48.9972L42.3074 49.0026L43.1562 49.5312ZM40.0469 52.3125L39.5997 51.4181L39.5969 51.4195L40.0469 52.3125ZM31.3438 52.5625L30.9399 53.4774L30.9468 53.4804L31.3438 52.5625ZM28.375 50.375L27.6157 51.0258L27.6199 51.0306L28.375 50.375ZM26.5312 36.3281L25.5818 36.0141L25.5804 36.0185L26.5312 36.3281ZM28.4375 32.875L27.6864 32.2147L27.6824 32.2194L28.4375 32.875ZM40.0938 30.9531L39.6268 31.8374L39.6297 31.839L40.0938 30.9531ZM43.1406 33.7969L42.2812 34.3081L42.2844 34.3135L43.1406 33.7969ZM44.4531 37.9219V38.9219H45.5522L45.4487 37.8277L44.4531 37.9219ZM39.7656 37.9219L38.7672 37.9786L38.8208 38.9219H39.7656V37.9219ZM39.2188 35.5938L38.3186 36.0293L38.3214 36.0351L39.2188 35.5938ZM37.7969 34.1406L37.3263 35.023L37.335 35.0276L37.3438 35.0321L37.7969 34.1406ZM30.8906 37.6562L29.9136 37.4429L29.9118 37.4514L30.8906 37.6562ZM30.875 45.5312L29.894 45.7252L29.8944 45.7274L30.875 45.5312ZM31.6875 47.7812L30.8274 48.2915L30.8326 48.3001L30.8379 48.3086L31.6875 47.7812ZM33.125 49.1562L32.6528 50.0377L32.6621 50.0427L32.6715 50.0475L33.125 49.1562ZM39.1406 47.75L38.2678 47.2618L38.2616 47.2732L39.1406 47.75ZM39.75 46.4531H44.4219V44.4531H39.75V46.4531ZM43.4237 45.392C43.3393 46.7712 42.9628 47.9649 42.3108 48.9973L44.0017 50.0652C44.8497 48.7226 45.3169 47.1976 45.42 45.5142L43.4237 45.392ZM42.3074 49.0026C41.6718 50.0231 40.7792 50.8283 39.5997 51.4181L40.4941 53.2069C41.9812 52.4634 43.1615 51.4144 44.0051 50.0599L42.3074 49.0026ZM39.5969 51.4195C38.4449 52 37.0133 52.3125 35.2656 52.3125V54.3125C37.2471 54.3125 39.003 53.9583 40.4969 53.2055L39.5969 51.4195ZM35.2656 52.3125C33.9225 52.3125 32.7534 52.0826 31.7407 51.6446L30.9468 53.4804C32.2466 54.0424 33.6921 54.3125 35.2656 54.3125V52.3125ZM31.7476 51.6477C30.7252 51.1963 29.8558 50.5553 29.1301 49.7194L27.6199 51.0306C28.54 52.0905 29.6498 52.9078 30.9399 53.4773L31.7476 51.6477ZM29.1343 49.7242C28.4196 48.8905 27.8604 47.8671 27.4686 46.6346L25.5626 47.2404C26.0251 48.6954 26.7054 49.9637 27.6157 51.0258L29.1343 49.7242ZM27.4686 46.6346C27.0778 45.4047 26.875 44.0039 26.875 42.4219H24.875C24.875 44.1731 25.0993 45.7828 25.5626 47.2404L27.4686 46.6346ZM26.875 42.4219V40.8438H24.875V42.4219H26.875ZM26.875 40.8438C26.875 39.2639 27.0824 37.8654 27.4821 36.6377L25.5804 36.0185C25.1051 37.4783 24.875 39.0903 24.875 40.8438H26.875ZM27.4807 36.6422C27.8927 35.3965 28.4675 34.3659 29.1926 33.5306L27.6824 32.2194C26.7617 33.2799 26.0657 34.5514 25.5818 36.0141L27.4807 36.6422ZM29.1885 33.5353C29.9259 32.6966 30.8021 32.0542 31.8257 31.6023L31.018 29.7727C29.7291 30.3416 28.6158 31.1576 27.6865 32.2147L29.1885 33.5353ZM31.8257 31.6023C32.8393 31.1549 33.9909 30.9219 35.2969 30.9219V28.9219C33.7487 28.9219 32.317 29.1993 31.018 29.7727L31.8257 31.6023ZM35.2969 30.9219C37.0754 30.9219 38.5041 31.2446 39.6268 31.8374L40.5607 30.0688C39.0792 29.2866 37.31 28.9219 35.2969 28.9219V30.9219ZM39.6297 31.839C40.7875 32.4454 41.6622 33.2675 42.2812 34.3081L44.0001 33.2857C43.1815 31.9095 42.025 30.8358 40.5578 30.0673L39.6297 31.839ZM42.2844 34.3135C42.9287 35.3812 43.3245 36.6092 43.4576 38.016L45.4487 37.8277C45.2901 36.1513 44.8109 34.6292 43.9968 33.2802L42.2844 34.3135ZM44.4531 36.9219H39.7656V38.9219H44.4531V36.9219ZM40.764 37.8651C40.7065 36.8527 40.5024 35.9379 40.1161 35.1524L38.3214 36.0351C38.5601 36.5204 38.7206 37.1577 38.7672 37.9786L40.764 37.8651ZM40.1189 35.1582C39.7119 34.317 39.0816 33.6718 38.2499 33.2491L37.3438 35.0321C37.783 35.2553 38.1006 35.5788 38.3186 36.0293L40.1189 35.1582ZM38.2675 33.2583C37.4454 32.8199 36.4311 32.6406 35.2969 32.6406V34.6406C36.246 34.6406 36.8983 34.7947 37.3263 35.023L38.2675 33.2583ZM35.2969 32.6406C34.3908 32.6406 33.5498 32.8102 32.8028 33.1837L33.6972 34.9726C34.1168 34.7627 34.6404 34.6406 35.2969 34.6406V32.6406ZM32.8028 33.1837C32.0494 33.5604 31.4322 34.127 30.9492 34.8515L32.6133 35.961C32.9219 35.498 33.2839 35.1792 33.6972 34.9726L32.8028 33.1837ZM30.9492 34.8515C30.4669 35.575 30.1306 36.4496 29.9137 37.4429L31.8676 37.8696C32.0465 37.0504 32.3039 36.425 32.6133 35.961L30.9492 34.8515ZM29.9118 37.4514C29.7066 38.432 29.6094 39.5558 29.6094 40.8125H31.6094C31.6094 39.6525 31.6997 38.6721 31.8694 37.8611L29.9118 37.4514ZM29.6094 40.8125V42.4219H31.6094V40.8125H29.6094ZM29.6094 42.4219C29.6094 43.6465 29.7013 44.7503 29.894 45.7252L31.856 45.3373C31.6946 44.5206 31.6094 43.5515 31.6094 42.4219H29.6094ZM29.8944 45.7274C30.0881 46.6956 30.3923 47.558 30.8274 48.2915L32.5476 47.271C32.2535 46.7754 32.0161 46.1377 31.8556 45.3351L29.8944 45.7274ZM30.8379 48.3086C31.2983 49.0504 31.9032 49.6362 32.6528 50.0377L33.5972 48.2748C33.1801 48.0513 32.8267 47.7204 32.5371 47.2539L30.8379 48.3086ZM32.6715 50.0475C33.4366 50.4368 34.3134 50.6094 35.2656 50.6094V48.6094C34.5512 48.6094 34.0009 48.4799 33.5785 48.265L32.6715 50.0475ZM35.2656 50.6094C36.3426 50.6094 37.3139 50.4388 38.1288 50.038L37.2462 48.2433C36.7903 48.4675 36.147 48.6094 35.2656 48.6094V50.6094ZM38.1288 50.038C38.9476 49.6353 39.5862 49.026 40.0197 48.2268L38.2616 47.2732C38.0284 47.7032 37.6982 48.021 37.2462 48.2433L38.1288 50.038ZM40.0134 48.2382C40.4478 47.4614 40.6781 46.5422 40.7477 45.5211L38.7523 45.3851C38.6969 46.1974 38.5209 46.8094 38.2679 47.2618L40.0134 48.2382Z" fill="black" mask="url(#path-4-outside-2_4004_87)"/>
</svg>
