<svg width="72" height="70" viewBox="0 0 72 70" fill="none" xmlns="http://www.w3.org/2000/svg">
<circle cx="36" cy="35" r="33.5" stroke="#909697" stroke-width="3"/>
<mask id="path-2-outside-1_4004_88" maskUnits="userSpaceOnUse" x="20" y="9" width="32" height="15" fill="black">
<rect fill="white" x="20" y="9" width="32" height="15"/>
<path d="M30.0088 20.2861V22H22.4502V20.2861H30.0088ZM29.8989 12.5591L23.4243 22H21.8789V20.7402L28.4048 11.3359H29.8989V12.5591ZM29.1445 11.3359V13.0571H21.8862V11.3359H29.1445ZM33.5024 14.0752V22H31.3857V14.0752H33.5024ZM31.2539 12.0098C31.2539 11.7021 31.3613 11.4482 31.5762 11.248C31.791 11.0479 32.0791 10.9478 32.4404 10.9478C32.7969 10.9478 33.0825 11.0479 33.2974 11.248C33.5171 11.4482 33.627 11.7021 33.627 12.0098C33.627 12.3174 33.5171 12.5713 33.2974 12.7715C33.0825 12.9717 32.7969 13.0718 32.4404 13.0718C32.0791 13.0718 31.791 12.9717 31.5762 12.7715C31.3613 12.5713 31.2539 12.3174 31.2539 12.0098ZM37.311 15.7671V22H35.2017V14.0752H37.1792L37.311 15.7671ZM37.0034 17.7593H36.4321C36.4321 17.1733 36.5078 16.646 36.6592 16.1772C36.8105 15.7036 37.0229 15.3008 37.2964 14.9688C37.5698 14.6318 37.8945 14.3755 38.2705 14.1997C38.6514 14.019 39.0762 13.9287 39.5449 13.9287C39.916 13.9287 40.2554 13.9824 40.563 14.0898C40.8706 14.1973 41.1343 14.3682 41.354 14.6025C41.5786 14.8369 41.7495 15.147 41.8667 15.5327C41.9888 15.9185 42.0498 16.3896 42.0498 16.9463V22H39.9258V16.939C39.9258 16.5874 39.877 16.314 39.7793 16.1187C39.6816 15.9233 39.5376 15.7866 39.3472 15.7085C39.1616 15.6255 38.9321 15.584 38.6587 15.584C38.3755 15.584 38.1289 15.6401 37.9189 15.7524C37.7139 15.8647 37.543 16.021 37.4062 16.2212C37.2744 16.4165 37.1743 16.646 37.106 16.9097C37.0376 17.1733 37.0034 17.4565 37.0034 17.7593ZM46.9277 20.4985C47.1865 20.4985 47.416 20.4497 47.6162 20.3521C47.8164 20.2495 47.9727 20.1079 48.085 19.9272C48.2021 19.7417 48.2632 19.5244 48.2681 19.2754H50.2529C50.248 19.832 50.0991 20.3276 49.8062 20.7622C49.5132 21.1919 49.1201 21.5312 48.627 21.7803C48.1338 22.0244 47.582 22.1465 46.9717 22.1465C46.3564 22.1465 45.8193 22.0439 45.3604 21.8389C44.9062 21.6338 44.5278 21.3506 44.2251 20.9893C43.9224 20.623 43.6953 20.1982 43.5439 19.7148C43.3926 19.2266 43.3169 18.7041 43.3169 18.1475V17.9351C43.3169 17.3735 43.3926 16.8511 43.5439 16.3677C43.6953 15.8794 43.9224 15.4546 44.2251 15.0933C44.5278 14.7271 44.9062 14.4414 45.3604 14.2363C45.8145 14.0312 46.3467 13.9287 46.957 13.9287C47.6064 13.9287 48.1753 14.0532 48.6636 14.3022C49.1567 14.5513 49.5425 14.9077 49.8208 15.3716C50.104 15.8306 50.248 16.375 50.2529 17.0049H48.2681C48.2632 16.7412 48.207 16.502 48.0996 16.2871C47.9971 16.0723 47.8457 15.9014 47.6455 15.7744C47.4502 15.6426 47.2085 15.5767 46.9204 15.5767C46.6128 15.5767 46.3613 15.6426 46.166 15.7744C45.9707 15.9014 45.8193 16.0771 45.7119 16.3018C45.6045 16.5215 45.5288 16.7729 45.4849 17.0562C45.4458 17.3345 45.4263 17.6274 45.4263 17.9351V18.1475C45.4263 18.4551 45.4458 18.7505 45.4849 19.0337C45.5239 19.3169 45.5972 19.5684 45.7046 19.7881C45.8169 20.0078 45.9707 20.1812 46.166 20.3081C46.3613 20.4351 46.6152 20.4985 46.9277 20.4985Z"/>
</mask>
<path d="M30.0088 20.2861V22H22.4502V20.2861H30.0088ZM29.8989 12.5591L23.4243 22H21.8789V20.7402L28.4048 11.3359H29.8989V12.5591ZM29.1445 11.3359V13.0571H21.8862V11.3359H29.1445ZM33.5024 14.0752V22H31.3857V14.0752H33.5024ZM31.2539 12.0098C31.2539 11.7021 31.3613 11.4482 31.5762 11.248C31.791 11.0479 32.0791 10.9478 32.4404 10.9478C32.7969 10.9478 33.0825 11.0479 33.2974 11.248C33.5171 11.4482 33.627 11.7021 33.627 12.0098C33.627 12.3174 33.5171 12.5713 33.2974 12.7715C33.0825 12.9717 32.7969 13.0718 32.4404 13.0718C32.0791 13.0718 31.791 12.9717 31.5762 12.7715C31.3613 12.5713 31.2539 12.3174 31.2539 12.0098ZM37.311 15.7671V22H35.2017V14.0752H37.1792L37.311 15.7671ZM37.0034 17.7593H36.4321C36.4321 17.1733 36.5078 16.646 36.6592 16.1772C36.8105 15.7036 37.0229 15.3008 37.2964 14.9688C37.5698 14.6318 37.8945 14.3755 38.2705 14.1997C38.6514 14.019 39.0762 13.9287 39.5449 13.9287C39.916 13.9287 40.2554 13.9824 40.563 14.0898C40.8706 14.1973 41.1343 14.3682 41.354 14.6025C41.5786 14.8369 41.7495 15.147 41.8667 15.5327C41.9888 15.9185 42.0498 16.3896 42.0498 16.9463V22H39.9258V16.939C39.9258 16.5874 39.877 16.314 39.7793 16.1187C39.6816 15.9233 39.5376 15.7866 39.3472 15.7085C39.1616 15.6255 38.9321 15.584 38.6587 15.584C38.3755 15.584 38.1289 15.6401 37.9189 15.7524C37.7139 15.8647 37.543 16.021 37.4062 16.2212C37.2744 16.4165 37.1743 16.646 37.106 16.9097C37.0376 17.1733 37.0034 17.4565 37.0034 17.7593ZM46.9277 20.4985C47.1865 20.4985 47.416 20.4497 47.6162 20.3521C47.8164 20.2495 47.9727 20.1079 48.085 19.9272C48.2021 19.7417 48.2632 19.5244 48.2681 19.2754H50.2529C50.248 19.832 50.0991 20.3276 49.8062 20.7622C49.5132 21.1919 49.1201 21.5312 48.627 21.7803C48.1338 22.0244 47.582 22.1465 46.9717 22.1465C46.3564 22.1465 45.8193 22.0439 45.3604 21.8389C44.9062 21.6338 44.5278 21.3506 44.2251 20.9893C43.9224 20.623 43.6953 20.1982 43.5439 19.7148C43.3926 19.2266 43.3169 18.7041 43.3169 18.1475V17.9351C43.3169 17.3735 43.3926 16.8511 43.5439 16.3677C43.6953 15.8794 43.9224 15.4546 44.2251 15.0933C44.5278 14.7271 44.9062 14.4414 45.3604 14.2363C45.8145 14.0312 46.3467 13.9287 46.957 13.9287C47.6064 13.9287 48.1753 14.0532 48.6636 14.3022C49.1567 14.5513 49.5425 14.9077 49.8208 15.3716C50.104 15.8306 50.248 16.375 50.2529 17.0049H48.2681C48.2632 16.7412 48.207 16.502 48.0996 16.2871C47.9971 16.0723 47.8457 15.9014 47.6455 15.7744C47.4502 15.6426 47.2085 15.5767 46.9204 15.5767C46.6128 15.5767 46.3613 15.6426 46.166 15.7744C45.9707 15.9014 45.8193 16.0771 45.7119 16.3018C45.6045 16.5215 45.5288 16.7729 45.4849 17.0562C45.4458 17.3345 45.4263 17.6274 45.4263 17.9351V18.1475C45.4263 18.4551 45.4458 18.7505 45.4849 19.0337C45.5239 19.3169 45.5972 19.5684 45.7046 19.7881C45.8169 20.0078 45.9707 20.1812 46.166 20.3081C46.3613 20.4351 46.6152 20.4985 46.9277 20.4985Z" fill="#909697"/>
<path d="M30.0088 20.2861H31.0088V19.2861H30.0088V20.2861ZM30.0088 22V23H31.0088V22H30.0088ZM22.4502 22H21.4502V23H22.4502V22ZM22.4502 20.2861V19.2861H21.4502V20.2861H22.4502ZM29.8989 12.5591L30.7236 13.1247L30.8989 12.869V12.5591H29.8989ZM23.4243 22V23H23.9511L24.249 22.5656L23.4243 22ZM21.8789 22H20.8789V23H21.8789V22ZM21.8789 20.7402L21.0573 20.1701L20.8789 20.4273V20.7402H21.8789ZM28.4048 11.3359V10.3359H27.8815L27.5832 10.7658L28.4048 11.3359ZM29.8989 11.3359H30.8989V10.3359H29.8989V11.3359ZM29.1445 11.3359H30.1445V10.3359H29.1445V11.3359ZM29.1445 13.0571V14.0571H30.1445V13.0571H29.1445ZM21.8862 13.0571H20.8862V14.0571H21.8862V13.0571ZM21.8862 11.3359V10.3359H20.8862V11.3359H21.8862ZM29.0088 20.2861V22H31.0088V20.2861H29.0088ZM30.0088 21H22.4502V23H30.0088V21ZM23.4502 22V20.2861H21.4502V22H23.4502ZM22.4502 21.2861H30.0088V19.2861H22.4502V21.2861ZM29.0742 11.9935L22.5996 21.4344L24.249 22.5656L30.7236 13.1247L29.0742 11.9935ZM23.4243 21H21.8789V23H23.4243V21ZM22.8789 22V20.7402H20.8789V22H22.8789ZM22.7005 21.3103L29.2264 11.906L27.5832 10.7658L21.0573 20.1701L22.7005 21.3103ZM28.4048 12.3359H29.8989V10.3359H28.4048V12.3359ZM28.8989 11.3359V12.5591H30.8989V11.3359H28.8989ZM28.1445 11.3359V13.0571H30.1445V11.3359H28.1445ZM29.1445 12.0571H21.8862V14.0571H29.1445V12.0571ZM22.8862 13.0571V11.3359H20.8862V13.0571H22.8862ZM21.8862 12.3359H29.1445V10.3359H21.8862V12.3359ZM33.5024 14.0752H34.5024V13.0752H33.5024V14.0752ZM33.5024 22V23H34.5024V22H33.5024ZM31.3857 22H30.3857V23H31.3857V22ZM31.3857 14.0752V13.0752H30.3857V14.0752H31.3857ZM33.2974 11.248L32.6156 11.9797L32.6239 11.9872L33.2974 11.248ZM33.2974 12.7715L32.6238 12.0322L32.6156 12.0399L33.2974 12.7715ZM32.5024 14.0752V22H34.5024V14.0752H32.5024ZM33.5024 21H31.3857V23H33.5024V21ZM32.3857 22V14.0752H30.3857V22H32.3857ZM31.3857 15.0752H33.5024V13.0752H31.3857V15.0752ZM32.2539 12.0098C32.2539 11.9912 32.2555 11.9808 32.2562 11.977C32.2569 11.9735 32.257 11.9745 32.2554 11.9783C32.2538 11.9821 32.2519 11.9853 32.2507 11.987C32.2496 11.9885 32.2512 11.9859 32.2579 11.9797L30.8944 10.5164C30.466 10.9157 30.2539 11.4395 30.2539 12.0098H32.2539ZM32.2579 11.9797C32.2596 11.978 32.2637 11.9736 32.2816 11.9674C32.3026 11.9601 32.3514 11.9478 32.4404 11.9478V9.94775C31.8873 9.94775 31.3348 10.1061 30.8944 10.5164L32.2579 11.9797ZM32.4404 11.9478C32.5256 11.9478 32.5717 11.9597 32.5913 11.9666C32.6078 11.9723 32.6124 11.9767 32.6156 11.9797L33.9791 10.5164C33.5412 10.1084 32.9928 9.94775 32.4404 9.94775V11.9478ZM32.6239 11.9872C32.6315 11.9942 32.6333 11.9972 32.6323 11.9957C32.6311 11.994 32.6288 11.9904 32.6268 11.9857C32.6248 11.9811 32.6245 11.979 32.625 11.9811C32.6254 11.9835 32.627 11.9925 32.627 12.0098H34.627C34.627 11.4319 34.4066 10.9059 33.9709 10.5089L32.6239 11.9872ZM32.627 12.0098C32.627 12.027 32.6254 12.036 32.625 12.0384C32.6245 12.0405 32.6248 12.0384 32.6268 12.0338C32.6288 12.0291 32.6311 12.0255 32.6323 12.0239C32.6333 12.0224 32.6315 12.0254 32.6239 12.0323L33.9709 13.5107C34.4066 13.1136 34.627 12.5876 34.627 12.0098H32.627ZM32.6156 12.0399C32.6124 12.0429 32.6078 12.0472 32.5913 12.053C32.5717 12.0598 32.5256 12.0718 32.4404 12.0718V14.0718C32.9928 14.0718 33.5412 13.9111 33.9791 13.5031L32.6156 12.0399ZM32.4404 12.0718C32.3514 12.0718 32.3026 12.0594 32.2816 12.0521C32.2637 12.0459 32.2596 12.0415 32.2579 12.0399L30.8944 13.5031C31.3348 13.9134 31.8873 14.0718 32.4404 14.0718V12.0718ZM32.2579 12.0399C32.2512 12.0336 32.2496 12.031 32.2507 12.0325C32.2519 12.0342 32.2538 12.0374 32.2554 12.0413C32.257 12.045 32.2569 12.046 32.2562 12.0425C32.2555 12.0387 32.2539 12.0284 32.2539 12.0098H30.2539C30.2539 12.58 30.466 13.1038 30.8944 13.5031L32.2579 12.0399ZM37.311 15.7671H38.311V15.7282L38.308 15.6894L37.311 15.7671ZM37.311 22V23H38.311V22H37.311ZM35.2017 22H34.2017V23H35.2017V22ZM35.2017 14.0752V13.0752H34.2017V14.0752H35.2017ZM37.1792 14.0752L38.1762 13.9975L38.1043 13.0752H37.1792V14.0752ZM37.0034 17.7593V18.7593H38.0034V17.7593H37.0034ZM36.4321 17.7593H35.4321V18.7593H36.4321V17.7593ZM36.6592 16.1772L37.6108 16.4845L37.6117 16.4817L36.6592 16.1772ZM37.2964 14.9688L38.0683 15.6045L38.0728 15.5989L37.2964 14.9688ZM38.2705 14.1997L38.694 15.1056L38.6991 15.1032L38.2705 14.1997ZM40.563 14.0898L40.8927 13.1458L40.563 14.0898ZM41.354 14.6025L40.6244 15.2865L40.632 15.2944L41.354 14.6025ZM41.8667 15.5327L40.9098 15.8234L40.9133 15.8344L41.8667 15.5327ZM42.0498 22V23H43.0498V22H42.0498ZM39.9258 22H38.9258V23H39.9258V22ZM39.3472 15.7085L38.9388 16.6213L38.9531 16.6277L38.9676 16.6337L39.3472 15.7085ZM37.9189 15.7524L37.4473 14.8706L37.4386 14.8753L37.9189 15.7524ZM37.4062 16.2212L36.5804 15.6572L36.5774 15.6617L37.4062 16.2212ZM36.311 15.7671V22H38.311V15.7671H36.311ZM37.311 21H35.2017V23H37.311V21ZM36.2017 22V14.0752H34.2017V22H36.2017ZM35.2017 15.0752H37.1792V13.0752H35.2017V15.0752ZM36.1822 14.1529L36.3141 15.8448L38.308 15.6894L38.1762 13.9975L36.1822 14.1529ZM37.0034 16.7593H36.4321V18.7593H37.0034V16.7593ZM37.4321 17.7593C37.4321 17.2585 37.4969 16.8373 37.6108 16.4845L35.7076 15.87C35.5187 16.4547 35.4321 17.0882 35.4321 17.7593H37.4321ZM37.6117 16.4817C37.7304 16.1103 37.8871 15.8245 38.0683 15.6045L36.5245 14.333C36.1588 14.7771 35.8907 15.2969 35.7066 15.8728L37.6117 16.4817ZM38.0728 15.5989C38.2554 15.3739 38.4613 15.2144 38.694 15.1056L37.847 13.2938C37.3278 13.5366 36.8842 13.8897 36.5199 14.3386L38.0728 15.5989ZM38.6991 15.1032C38.9317 14.9929 39.2077 14.9287 39.5449 14.9287V12.9287C38.9447 12.9287 38.3711 13.0452 37.8419 13.2962L38.6991 15.1032ZM39.5449 14.9287C39.8191 14.9287 40.0453 14.9683 40.2333 15.0339L40.8927 13.1458C40.4655 12.9966 40.0129 12.9287 39.5449 12.9287V14.9287ZM40.2333 15.0339C40.3909 15.089 40.5167 15.1715 40.6245 15.2865L42.0835 13.9186C41.7518 13.5648 41.3504 13.3056 40.8927 13.1458L40.2333 15.0339ZM40.632 15.2944C40.7248 15.3912 40.8275 15.5523 40.9099 15.8234L42.8235 15.242C42.6715 14.7416 42.4324 14.2826 42.076 13.9106L40.632 15.2944ZM40.9133 15.8344C40.9953 16.0936 41.0498 16.4565 41.0498 16.9463H43.0498C43.0498 16.3228 42.9822 15.7433 42.8201 15.231L40.9133 15.8344ZM41.0498 16.9463V22H43.0498V16.9463H41.0498ZM42.0498 21H39.9258V23H42.0498V21ZM40.9258 22V16.939H38.9258V22H40.9258ZM40.9258 16.939C40.9258 16.5164 40.8706 16.0652 40.6737 15.6714L38.8849 16.5659C38.8811 16.5582 38.8928 16.5793 38.9047 16.646C38.9165 16.7118 38.9258 16.8074 38.9258 16.939H40.9258ZM40.6737 15.6714C40.4751 15.2741 40.1553 14.9592 39.7267 14.7833L38.9676 16.6337C38.9526 16.6275 38.9306 16.6148 38.9096 16.5949C38.8893 16.5757 38.8829 16.5618 38.8849 16.5659L40.6737 15.6714ZM39.7555 14.7957C39.4053 14.639 39.0269 14.584 38.6587 14.584V16.584C38.8374 16.584 38.9179 16.612 38.9388 16.6213L39.7555 14.7957ZM38.6587 14.584C38.242 14.584 37.8275 14.6673 37.4473 14.8707L38.3906 16.6342C38.4303 16.613 38.509 16.584 38.6587 16.584V14.584ZM37.4386 14.8753C37.0902 15.0662 36.8027 15.3318 36.5804 15.6572L38.2321 16.7852C38.2833 16.7101 38.3376 16.6633 38.3993 16.6295L37.4386 14.8753ZM36.5774 15.6617C36.3729 15.9646 36.2305 16.3019 36.138 16.6587L38.074 17.1606C38.1182 16.9901 38.1759 16.8684 38.2351 16.7807L36.5774 15.6617ZM36.138 16.6587C36.0461 17.0129 36.0034 17.3812 36.0034 17.7593H38.0034C38.0034 17.5319 38.0291 17.3338 38.074 17.1606L36.138 16.6587ZM47.6162 20.3521L48.0546 21.2508L48.0634 21.2465L48.0721 21.2421L47.6162 20.3521ZM48.085 19.9272L47.2395 19.3932L47.2357 19.3993L48.085 19.9272ZM48.2681 19.2754V18.2754H47.2875L47.2683 19.2558L48.2681 19.2754ZM50.2529 19.2754L51.2529 19.2842L51.2617 18.2754H50.2529V19.2754ZM49.8062 20.7622L50.6324 21.3256L50.6353 21.3212L49.8062 20.7622ZM48.627 21.7803L49.0706 22.6765L49.0777 22.6729L48.627 21.7803ZM45.3604 21.8389L44.9488 22.7502L44.9524 22.7519L45.3604 21.8389ZM44.2251 20.9893L43.4543 21.6264L43.4586 21.6315L44.2251 20.9893ZM43.5439 19.7148L42.5888 20.0109L42.5896 20.0137L43.5439 19.7148ZM43.5439 16.3677L44.4983 16.6665L44.4991 16.6638L43.5439 16.3677ZM44.2251 15.0933L44.9916 15.7355L44.9958 15.7304L44.2251 15.0933ZM48.6636 14.3022L48.2092 15.1931L48.2128 15.1949L48.6636 14.3022ZM49.8208 15.3716L48.9632 15.8861L48.9698 15.8967L49.8208 15.3716ZM50.2529 17.0049V18.0049H51.2607L51.2529 16.9971L50.2529 17.0049ZM48.2681 17.0049L47.2682 17.0234L47.2864 18.0049H48.2681V17.0049ZM48.0996 16.2871L47.1971 16.7178L47.2011 16.7261L47.2052 16.7343L48.0996 16.2871ZM47.6455 15.7744L47.086 16.6033L47.0979 16.6113L47.11 16.6189L47.6455 15.7744ZM46.166 15.7744L46.711 16.6129L46.7183 16.6081L46.7255 16.6033L46.166 15.7744ZM45.7119 16.3018L46.6103 16.741L46.614 16.7332L45.7119 16.3018ZM45.4849 17.0562L44.4967 16.9028L44.4956 16.91L44.4946 16.9172L45.4849 17.0562ZM45.7046 19.7881L44.8062 20.2273L44.8101 20.2353L44.8142 20.2432L45.7046 19.7881ZM46.9277 21.4985C47.3139 21.4985 47.6974 21.4251 48.0546 21.2508L47.1778 19.4533C47.1346 19.4743 47.0591 19.4985 46.9277 19.4985V21.4985ZM48.0721 21.2421C48.4242 21.0617 48.7205 20.799 48.9342 20.4552L47.2357 19.3993C47.2248 19.4168 47.2086 19.4373 47.1603 19.462L48.0721 21.2421ZM48.9304 20.4612C49.1576 20.1015 49.2599 19.7012 49.2679 19.295L47.2683 19.2558C47.2665 19.3476 47.2467 19.3819 47.2395 19.3933L48.9304 20.4612ZM48.2681 20.2754H50.2529V18.2754H48.2681V20.2754ZM49.253 19.2666C49.2497 19.6399 49.1533 19.9416 48.977 20.2032L50.6353 21.3212C51.0449 20.7136 51.2464 20.0242 51.2529 19.2842L49.253 19.2666ZM48.9799 20.1989C48.7882 20.4801 48.5281 20.7099 48.1762 20.8876L49.0777 22.6729C49.7121 22.3526 50.2382 21.9037 50.6324 21.3255L48.9799 20.1989ZM48.1833 20.8841C47.8425 21.0528 47.4451 21.1465 46.9717 21.1465V23.1465C47.7189 23.1465 48.425 22.9961 49.0706 22.6765L48.1833 20.8841ZM46.9717 21.1465C46.4663 21.1465 46.0736 21.0623 45.7683 20.9259L44.9524 22.7519C45.5651 23.0256 46.2466 23.1465 46.9717 23.1465V21.1465ZM45.7719 20.9275C45.4469 20.7807 45.1923 20.5866 44.9916 20.347L43.4586 21.6315C43.8634 22.1146 44.3656 22.4869 44.9488 22.7502L45.7719 20.9275ZM44.9958 20.3521C44.781 20.0922 44.6135 19.7841 44.4983 19.416L42.5896 20.0137C42.7771 20.6124 43.0638 21.1539 43.4544 21.6264L44.9958 20.3521ZM44.4991 19.4187C44.38 19.0345 44.3169 18.6126 44.3169 18.1475H42.3169C42.3169 18.7956 42.4052 19.4186 42.5888 20.0109L44.4991 19.4187ZM44.3169 18.1475V17.9351H42.3169V18.1475H44.3169ZM44.3169 17.9351C44.3169 17.464 44.3803 17.0433 44.4983 16.6665L42.5896 16.0689C42.4049 16.6588 42.3169 17.2831 42.3169 17.9351H44.3169ZM44.4991 16.6638C44.6145 16.2914 44.7811 15.9868 44.9916 15.7355L43.4586 14.451C43.0637 14.9224 42.7761 15.4673 42.5888 16.0716L44.4991 16.6638ZM44.9958 15.7304C45.1966 15.4876 45.45 15.2931 45.7719 15.1477L44.9488 13.325C44.3625 13.5897 43.8591 13.9665 43.4544 14.4561L44.9958 15.7304ZM45.7719 15.1477C46.071 15.0126 46.4574 14.9287 46.957 14.9287V12.9287C46.2359 12.9287 45.5579 13.0499 44.9488 13.325L45.7719 15.1477ZM46.957 14.9287C47.4776 14.9287 47.8854 15.0279 48.2092 15.1931L49.1179 13.4114C48.4651 13.0785 47.7353 12.9287 46.957 12.9287V14.9287ZM48.2128 15.1949C48.5412 15.3607 48.7843 15.5877 48.9633 15.8861L50.6783 14.8571C50.3007 14.2277 49.7723 13.7418 49.1143 13.4096L48.2128 15.1949ZM48.9698 15.8967C49.1418 16.1756 49.2493 16.5344 49.253 17.0126L51.2529 16.9971C51.2468 16.2156 51.0662 15.4856 50.6718 14.8465L48.9698 15.8967ZM50.2529 16.0049H48.2681V18.0049H50.2529V16.0049ZM49.2679 16.9864C49.2605 16.5885 49.1744 16.2006 48.994 15.8399L47.2052 16.7343C47.2397 16.8033 47.2658 16.8939 47.2682 17.0234L49.2679 16.9864ZM49.0021 15.8564C48.8189 15.4726 48.5407 15.158 48.181 14.9299L47.11 16.6189C47.1507 16.6447 47.1752 16.6719 47.1971 16.7178L49.0021 15.8564ZM48.205 14.9456C47.8108 14.6795 47.3631 14.5767 46.9204 14.5767V16.5767C46.9886 16.5767 47.0312 16.5845 47.0546 16.5909C47.0766 16.5969 47.0846 16.6023 47.086 16.6033L48.205 14.9456ZM46.9204 14.5767C46.4736 14.5767 46.0108 14.6727 45.6065 14.9456L46.7255 16.6033C46.7118 16.6125 46.752 16.5767 46.9204 16.5767V14.5767ZM45.621 14.936C45.2608 15.1701 44.9909 15.4916 44.8098 15.8703L46.614 16.7332C46.6478 16.6626 46.6806 16.6326 46.711 16.6129L45.621 14.936ZM44.8135 15.8625C44.6552 16.1865 44.5535 16.537 44.4967 16.9028L46.473 17.2095C46.5042 17.0089 46.5538 16.8565 46.6103 16.741L44.8135 15.8625ZM44.4946 16.9172C44.4485 17.2456 44.4263 17.5853 44.4263 17.9351H46.4263C46.4263 17.6696 46.4431 17.4233 46.4752 17.1951L44.4946 16.9172ZM44.4263 17.9351V18.1475H46.4263V17.9351H44.4263ZM44.4263 18.1475C44.4263 18.4974 44.4485 18.8386 44.4942 19.1703L46.4755 18.8971C46.4431 18.6624 46.4263 18.4128 46.4263 18.1475H44.4263ZM44.4942 19.1703C44.5454 19.5413 44.6451 19.8977 44.8062 20.2273L46.603 19.3489C46.5493 19.239 46.5024 19.0925 46.4755 18.8971L44.4942 19.1703ZM44.8142 20.2432C45.0012 20.6091 45.2702 20.9185 45.621 21.1465L46.711 19.4697C46.6712 19.4438 46.6326 19.4065 46.595 19.333L44.8142 20.2432ZM45.621 21.1465C46.0252 21.4093 46.4862 21.4985 46.9277 21.4985V19.4985C46.7443 19.4985 46.6974 19.4608 46.711 19.4697L45.621 21.1465Z" fill="black" mask="url(#path-2-outside-1_4004_88)"/>
<mask id="path-4-outside-2_4004_88" maskUnits="userSpaceOnUse" x="17" y="29" width="38" height="25" fill="black">
<rect fill="white" x="17" y="29" width="38" height="25"/>
<path d="M35.7969 49.3438V53H19.6719V49.3438H35.7969ZM35.5625 32.8594L21.75 53H18.4531V50.3125L32.375 30.25H35.5625V32.8594ZM33.9531 30.25V33.9219H18.4688V30.25H33.9531ZM42.9062 39.7031V53H38.4062V36.0938H42.625L42.9062 39.7031ZM42.25 43.9531H41.0312C41.0312 42.7031 41.1927 41.5781 41.5156 40.5781C41.8385 39.5677 42.2917 38.7083 42.875 38C43.4583 37.2812 44.151 36.7344 44.9531 36.3594C45.7656 35.974 46.6719 35.7812 47.6719 35.7812C48.4635 35.7812 49.1875 35.8958 49.8438 36.125C50.5 36.3542 51.0625 36.7188 51.5312 37.2188C52.0104 37.7188 52.375 38.3802 52.625 39.2031C52.8854 40.026 53.0156 41.0312 53.0156 42.2188V53H48.4844V42.2031C48.4844 41.4531 48.3802 40.8698 48.1719 40.4531C47.9635 40.0365 47.6562 39.7448 47.25 39.5781C46.8542 39.401 46.3646 39.3125 45.7812 39.3125C45.1771 39.3125 44.651 39.4323 44.2031 39.6719C43.7656 39.9115 43.401 40.2448 43.1094 40.6719C42.8281 41.0885 42.6146 41.5781 42.4688 42.1406C42.3229 42.7031 42.25 43.3073 42.25 43.9531Z"/>
</mask>
<path d="M35.7969 49.3438V53H19.6719V49.3438H35.7969ZM35.5625 32.8594L21.75 53H18.4531V50.3125L32.375 30.25H35.5625V32.8594ZM33.9531 30.25V33.9219H18.4688V30.25H33.9531ZM42.9062 39.7031V53H38.4062V36.0938H42.625L42.9062 39.7031ZM42.25 43.9531H41.0312C41.0312 42.7031 41.1927 41.5781 41.5156 40.5781C41.8385 39.5677 42.2917 38.7083 42.875 38C43.4583 37.2812 44.151 36.7344 44.9531 36.3594C45.7656 35.974 46.6719 35.7812 47.6719 35.7812C48.4635 35.7812 49.1875 35.8958 49.8438 36.125C50.5 36.3542 51.0625 36.7188 51.5312 37.2188C52.0104 37.7188 52.375 38.3802 52.625 39.2031C52.8854 40.026 53.0156 41.0312 53.0156 42.2188V53H48.4844V42.2031C48.4844 41.4531 48.3802 40.8698 48.1719 40.4531C47.9635 40.0365 47.6562 39.7448 47.25 39.5781C46.8542 39.401 46.3646 39.3125 45.7812 39.3125C45.1771 39.3125 44.651 39.4323 44.2031 39.6719C43.7656 39.9115 43.401 40.2448 43.1094 40.6719C42.8281 41.0885 42.6146 41.5781 42.4688 42.1406C42.3229 42.7031 42.25 43.3073 42.25 43.9531Z" fill="#909697"/>
<path d="M35.7969 49.3438H36.7969V48.3438H35.7969V49.3438ZM35.7969 53V54H36.7969V53H35.7969ZM19.6719 53H18.6719V54H19.6719V53ZM19.6719 49.3438V48.3438H18.6719V49.3438H19.6719ZM35.5625 32.8594L36.3872 33.425L36.5625 33.1693V32.8594H35.5625ZM21.75 53V54H22.2768L22.5747 53.5656L21.75 53ZM18.4531 53H17.4531V54H18.4531V53ZM18.4531 50.3125L17.6316 49.7424L17.4531 49.9995V50.3125H18.4531ZM32.375 30.25V29.25H31.8517L31.5534 29.6799L32.375 30.25ZM35.5625 30.25H36.5625V29.25H35.5625V30.25ZM33.9531 30.25H34.9531V29.25H33.9531V30.25ZM33.9531 33.9219V34.9219H34.9531V33.9219H33.9531ZM18.4688 33.9219H17.4688V34.9219H18.4688V33.9219ZM18.4688 30.25V29.25H17.4688V30.25H18.4688ZM34.7969 49.3438V53H36.7969V49.3438H34.7969ZM35.7969 52H19.6719V54H35.7969V52ZM20.6719 53V49.3438H18.6719V53H20.6719ZM19.6719 50.3438H35.7969V48.3438H19.6719V50.3438ZM34.7378 32.2938L20.9253 52.4344L22.5747 53.5656L36.3872 33.425L34.7378 32.2938ZM21.75 52H18.4531V54H21.75V52ZM19.4531 53V50.3125H17.4531V53H19.4531ZM19.2747 50.8826L33.1966 30.8201L31.5534 29.6799L17.6316 49.7424L19.2747 50.8826ZM32.375 31.25H35.5625V29.25H32.375V31.25ZM34.5625 30.25V32.8594H36.5625V30.25H34.5625ZM32.9531 30.25V33.9219H34.9531V30.25H32.9531ZM33.9531 32.9219H18.4688V34.9219H33.9531V32.9219ZM19.4688 33.9219V30.25H17.4688V33.9219H19.4688ZM18.4688 31.25H33.9531V29.25H18.4688V31.25ZM42.9062 39.7031H43.9062V39.6642L43.9032 39.6254L42.9062 39.7031ZM42.9062 53V54H43.9062V53H42.9062ZM38.4062 53H37.4062V54H38.4062V53ZM38.4062 36.0938V35.0938H37.4062V36.0938H38.4062ZM42.625 36.0938L43.622 36.0161L43.5501 35.0938H42.625V36.0938ZM42.25 43.9531V44.9531H43.25V43.9531H42.25ZM41.0312 43.9531H40.0312V44.9531H41.0312V43.9531ZM41.5156 40.5781L42.4672 40.8854L42.4682 40.8825L41.5156 40.5781ZM42.875 38L43.6469 38.6357L43.6515 38.6302L42.875 38ZM44.9531 36.3594L45.3767 37.2653L45.3817 37.2629L44.9531 36.3594ZM51.5312 37.2188L50.8017 37.9027L50.8093 37.9107L51.5312 37.2188ZM52.625 39.2031L51.6681 39.4938L51.6716 39.5048L52.625 39.2031ZM53.0156 53V54H54.0156V53H53.0156ZM48.4844 53H47.4844V54H48.4844V53ZM47.25 39.5781L46.8416 40.4909L46.8559 40.4973L46.8704 40.5033L47.25 39.5781ZM44.2031 39.6719L43.7314 38.79L43.7228 38.7948L44.2031 39.6719ZM43.1094 40.6719L42.2836 40.1079L42.2805 40.1124L43.1094 40.6719ZM41.9062 39.7031V53H43.9062V39.7031H41.9062ZM42.9062 52H38.4062V54H42.9062V52ZM39.4062 53V36.0938H37.4062V53H39.4062ZM38.4062 37.0938H42.625V35.0938H38.4062V37.0938ZM41.628 36.1714L41.9093 39.7808L43.9032 39.6254L43.622 36.0161L41.628 36.1714ZM42.25 42.9531H41.0312V44.9531H42.25V42.9531ZM42.0312 43.9531C42.0312 42.7883 42.1818 41.7694 42.4672 40.8854L40.564 40.2708C40.2036 41.3869 40.0312 42.618 40.0312 43.9531H42.0312ZM42.4682 40.8825C42.7584 39.9744 43.1558 39.232 43.6469 38.6357L42.1031 37.3643C41.4275 38.1846 40.9187 39.161 40.5631 40.2737L42.4682 40.8825ZM43.6515 38.6302C44.144 38.0233 44.7178 37.5733 45.3767 37.2653L44.5296 35.4535C43.5843 35.8955 42.7727 36.5392 42.0985 37.3698L43.6515 38.6302ZM45.3817 37.2629C46.0459 36.9478 46.8034 36.7812 47.6719 36.7812V34.7812C46.5404 34.7812 45.4853 35.0001 44.5245 35.4559L45.3817 37.2629ZM47.6719 36.7812C48.3667 36.7812 48.9774 36.8817 49.5141 37.0691L50.1734 35.1809C49.3976 34.91 48.5604 34.7812 47.6719 34.7812V36.7812ZM49.5141 37.0691C50.0203 37.2459 50.4449 37.5221 50.8017 37.9027L52.2608 36.5348C51.6801 35.9154 50.9797 35.4625 50.1734 35.1809L49.5141 37.0691ZM50.8093 37.9107C51.1566 38.2731 51.453 38.7856 51.6682 39.4938L53.5818 38.9124C53.297 37.9748 52.8642 37.1644 52.2532 36.5268L50.8093 37.9107ZM51.6716 39.5048C51.892 40.2012 52.0156 41.0981 52.0156 42.2188H54.0156C54.0156 40.9644 53.8789 39.8509 53.5784 38.9014L51.6716 39.5048ZM52.0156 42.2188V53H54.0156V42.2188H52.0156ZM53.0156 52H48.4844V54H53.0156V52ZM49.4844 53V42.2031H47.4844V53H49.4844ZM49.4844 42.2031C49.4844 41.3822 49.3739 40.6211 49.0663 40.0059L47.2774 40.9003C47.3865 41.1185 47.4844 41.5241 47.4844 42.2031H49.4844ZM49.0663 40.0059C48.757 39.3872 48.274 38.9173 47.6296 38.653L46.8704 40.5033C47.0385 40.5723 47.1701 40.6857 47.2774 40.9003L49.0663 40.0059ZM47.6584 38.6653C47.0978 38.4145 46.4593 38.3125 45.7812 38.3125V40.3125C46.2698 40.3125 46.6105 40.3875 46.8416 40.4909L47.6584 38.6653ZM45.7812 38.3125C45.0436 38.3125 44.3496 38.4595 43.7315 38.7901L44.6748 40.5537C44.9525 40.4051 45.3105 40.3125 45.7812 40.3125V38.3125ZM43.7228 38.7948C43.1419 39.1129 42.6607 39.5556 42.2836 40.1079L43.9352 41.2358C44.1413 40.9339 44.3893 40.71 44.6834 40.549L43.7228 38.7948ZM42.2805 40.1124C41.9266 40.6367 41.6707 41.234 41.5008 41.8897L43.4367 42.3916C43.5584 41.9222 43.7296 41.5404 43.9382 41.2313L42.2805 40.1124ZM41.5008 41.8897C41.3315 42.5426 41.25 43.2319 41.25 43.9531H43.25C43.25 43.3827 43.3144 42.8636 43.4367 42.3916L41.5008 41.8897Z" fill="black" mask="url(#path-4-outside-2_4004_88)"/>
<circle cx="9.5" cy="60.5" r="8.5" fill="#D9D9D9"/>
<circle cx="9.5" cy="60.5" r="8.5" stroke="#909697" stroke-width="2"/>
<circle cx="9.5" cy="60.5" r="8.5" stroke="black" stroke-opacity="0.2" stroke-width="2"/>
<circle cx="62.5" cy="11.5" r="8.5" fill="#D9D9D9"/>
<circle cx="62.5" cy="11.5" r="8.5" stroke="#909697" stroke-width="2"/>
<circle cx="62.5" cy="11.5" r="8.5" stroke="black" stroke-opacity="0.2" stroke-width="2"/>
</svg>
