<svg width="70" height="70" viewBox="0 0 70 70" fill="none" xmlns="http://www.w3.org/2000/svg">
<circle cx="35" cy="35" r="33.5" stroke="#FFC000" stroke-width="3"/>
<mask id="path-2-outside-1_4013_153" maskUnits="userSpaceOnUse" x="22" y="10" width="26" height="13" fill="black">
<rect fill="white" x="22" y="10" width="26" height="13"/>
<path d="M28.1592 19.7734L30.6714 11.3359H33.1177L29.4043 22H27.793L28.1592 19.7734ZM25.8447 11.3359L28.3496 19.7734L28.7305 22H27.1045L23.4131 11.3359H25.8447ZM36.4502 11.3359V22H34.2603V11.3359H36.4502ZM43.0566 11.3359V22H40.8667V11.3359H43.0566ZM46.3379 11.3359V13.0571H37.6367V11.3359H46.3379Z"/>
</mask>
<path d="M28.1592 19.7734L30.6714 11.3359H33.1177L29.4043 22H27.793L28.1592 19.7734ZM25.8447 11.3359L28.3496 19.7734L28.7305 22H27.1045L23.4131 11.3359H25.8447ZM36.4502 11.3359V22H34.2603V11.3359H36.4502ZM43.0566 11.3359V22H40.8667V11.3359H43.0566ZM46.3379 11.3359V13.0571H37.6367V11.3359H46.3379Z" fill="#FFC000"/>
<path d="M28.1592 19.7734L27.2008 19.4881L27.1827 19.5487L27.1724 19.6111L28.1592 19.7734ZM30.6714 11.3359V10.3359H29.9257L29.713 11.0506L30.6714 11.3359ZM33.1177 11.3359L34.0621 11.6648L34.5248 10.3359H33.1177V11.3359ZM29.4043 22V23H30.115L30.3487 22.3288L29.4043 22ZM27.793 22L26.8062 21.8377L26.6151 23H27.793V22ZM25.8447 11.3359L26.8034 11.0513L26.591 10.3359H25.8447V11.3359ZM28.3496 19.7734L29.3353 19.6048L29.3252 19.546L29.3083 19.4888L28.3496 19.7734ZM28.7305 22V23H29.916L29.7162 21.8314L28.7305 22ZM27.1045 22L26.1595 22.3271L26.3924 23H27.1045V22ZM23.4131 11.3359V10.3359H22.0087L22.4681 11.663L23.4131 11.3359ZM29.1176 20.0588L31.6298 11.6213L29.713 11.0506L27.2008 19.4881L29.1176 20.0588ZM30.6714 12.3359H33.1177V10.3359H30.6714V12.3359ZM32.1733 11.0071L28.4599 21.6712L30.3487 22.3288L34.0621 11.6648L32.1733 11.0071ZM29.4043 21H27.793V23H29.4043V21ZM28.7797 22.1623L29.1459 19.9357L27.1724 19.6111L26.8062 21.8377L28.7797 22.1623ZM24.8861 11.6205L27.391 20.058L29.3083 19.4888L26.8034 11.0513L24.8861 11.6205ZM27.3639 19.942L27.7448 22.1686L29.7162 21.8314L29.3353 19.6048L27.3639 19.942ZM28.7305 21H27.1045V23H28.7305V21ZM28.0495 21.6729L24.3581 11.0088L22.4681 11.663L26.1595 22.3271L28.0495 21.6729ZM23.4131 12.3359H25.8447V10.3359H23.4131V12.3359ZM36.4502 11.3359H37.4502V10.3359H36.4502V11.3359ZM36.4502 22V23H37.4502V22H36.4502ZM34.2603 22H33.2603V23H34.2603V22ZM34.2603 11.3359V10.3359H33.2603V11.3359H34.2603ZM35.4502 11.3359V22H37.4502V11.3359H35.4502ZM36.4502 21H34.2603V23H36.4502V21ZM35.2603 22V11.3359H33.2603V22H35.2603ZM34.2603 12.3359H36.4502V10.3359H34.2603V12.3359ZM43.0566 11.3359H44.0566V10.3359H43.0566V11.3359ZM43.0566 22V23H44.0566V22H43.0566ZM40.8667 22H39.8667V23H40.8667V22ZM40.8667 11.3359V10.3359H39.8667V11.3359H40.8667ZM46.3379 11.3359H47.3379V10.3359H46.3379V11.3359ZM46.3379 13.0571V14.0571H47.3379V13.0571H46.3379ZM37.6367 13.0571H36.6367V14.0571H37.6367V13.0571ZM37.6367 11.3359V10.3359H36.6367V11.3359H37.6367ZM42.0566 11.3359V22H44.0566V11.3359H42.0566ZM43.0566 21H40.8667V23H43.0566V21ZM41.8667 22V11.3359H39.8667V22H41.8667ZM40.8667 12.3359H43.0566V10.3359H40.8667V12.3359ZM45.3379 11.3359V13.0571H47.3379V11.3359H45.3379ZM46.3379 12.0571H37.6367V14.0571H46.3379V12.0571ZM38.6367 13.0571V11.3359H36.6367V13.0571H38.6367ZM37.6367 12.3359H46.3379V10.3359H37.6367V12.3359Z" fill="black" mask="url(#path-2-outside-1_4013_153)"/>
<mask id="path-4-outside-2_4013_153" maskUnits="userSpaceOnUse" x="25" y="29" width="21" height="25" fill="black">
<rect fill="white" x="25" y="29" width="21" height="25"/>
<path d="M33.6094 53H28.6562L28.6875 49.3438H33.6094C34.8385 49.3438 35.875 49.0677 36.7188 48.5156C37.5625 47.9531 38.1979 47.1354 38.625 46.0625C39.0625 44.9896 39.2812 43.6927 39.2812 42.1719V41.0625C39.2812 39.8958 39.1562 38.8698 38.9062 37.9844C38.6667 37.099 38.3073 36.3542 37.8281 35.75C37.349 35.1458 36.7604 34.6927 36.0625 34.3906C35.3646 34.0781 34.5625 33.9219 33.6562 33.9219H28.5625V30.25H33.6562C35.1771 30.25 36.5677 30.5104 37.8281 31.0312C39.099 31.5417 40.1979 32.276 41.125 33.2344C42.0521 34.1927 42.7656 35.3385 43.2656 36.6719C43.776 37.9948 44.0312 39.4688 44.0312 41.0938V42.1719C44.0312 43.7865 43.776 45.2604 43.2656 46.5938C42.7656 47.9271 42.0521 49.0729 41.125 50.0312C40.2083 50.9792 39.1094 51.7135 37.8281 52.2344C36.5573 52.7448 35.151 53 33.6094 53ZM31.3125 30.25V53H26.625V30.25H31.3125Z"/>
</mask>
<path d="M33.6094 53H28.6562L28.6875 49.3438H33.6094C34.8385 49.3438 35.875 49.0677 36.7188 48.5156C37.5625 47.9531 38.1979 47.1354 38.625 46.0625C39.0625 44.9896 39.2812 43.6927 39.2812 42.1719V41.0625C39.2812 39.8958 39.1562 38.8698 38.9062 37.9844C38.6667 37.099 38.3073 36.3542 37.8281 35.75C37.349 35.1458 36.7604 34.6927 36.0625 34.3906C35.3646 34.0781 34.5625 33.9219 33.6562 33.9219H28.5625V30.25H33.6562C35.1771 30.25 36.5677 30.5104 37.8281 31.0312C39.099 31.5417 40.1979 32.276 41.125 33.2344C42.0521 34.1927 42.7656 35.3385 43.2656 36.6719C43.776 37.9948 44.0312 39.4688 44.0312 41.0938V42.1719C44.0312 43.7865 43.776 45.2604 43.2656 46.5938C42.7656 47.9271 42.0521 49.0729 41.125 50.0312C40.2083 50.9792 39.1094 51.7135 37.8281 52.2344C36.5573 52.7448 35.151 53 33.6094 53ZM31.3125 30.25V53H26.625V30.25H31.3125Z" fill="#FFC000"/>
<path d="M28.6562 53L27.6563 52.9915L27.6477 54H28.6562V53ZM28.6875 49.3438V48.3438H27.696L27.6875 49.3352L28.6875 49.3438ZM36.7188 48.5156L37.2663 49.3524L37.2735 49.3477L36.7188 48.5156ZM38.625 46.0625L37.699 45.6849L37.6959 45.6927L38.625 46.0625ZM38.9062 37.9844L37.9409 38.2456L37.9439 38.2561L38.9062 37.9844ZM36.0625 34.3906L35.6538 35.3034L35.6653 35.3083L36.0625 34.3906ZM28.5625 33.9219H27.5625V34.9219H28.5625V33.9219ZM28.5625 30.25V29.25H27.5625V30.25H28.5625ZM37.8281 31.0312L37.4462 31.9555L37.4554 31.9592L37.8281 31.0312ZM41.125 33.2344L41.8437 32.5391L41.125 33.2344ZM43.2656 36.6719L42.3293 37.023L42.3327 37.0318L43.2656 36.6719ZM43.2656 46.5938L42.3317 46.2362L42.3293 46.2426L43.2656 46.5938ZM41.125 50.0312L40.4063 49.336L40.4061 49.3361L41.125 50.0312ZM37.8281 52.2344L38.2008 53.1623L38.2047 53.1608L37.8281 52.2344ZM31.3125 30.25H32.3125V29.25H31.3125V30.25ZM31.3125 53V54H32.3125V53H31.3125ZM26.625 53H25.625V54H26.625V53ZM26.625 30.25V29.25H25.625V30.25H26.625ZM33.6094 52H28.6562V54H33.6094V52ZM29.6562 53.0085L29.6875 49.3523L27.6875 49.3352L27.6563 52.9915L29.6562 53.0085ZM28.6875 50.3438H33.6094V48.3438H28.6875V50.3438ZM33.6094 50.3438C34.9901 50.3438 36.2272 50.0323 37.2663 49.3524L36.1712 47.6788C35.5228 48.1031 34.687 48.3438 33.6094 48.3438V50.3438ZM37.2735 49.3477C38.3087 48.6575 39.0628 47.6667 39.5541 46.4323L37.6959 45.6927C37.3331 46.6042 36.8163 47.2488 36.164 47.6836L37.2735 49.3477ZM39.551 46.4401C40.05 45.2162 40.2812 43.7838 40.2812 42.1719H38.2812C38.2812 43.6017 38.075 44.763 37.699 45.6849L39.551 46.4401ZM40.2812 42.1719V41.0625H38.2812V42.1719H40.2812ZM40.2812 41.0625C40.2812 39.8273 40.1492 38.7064 39.8686 37.7126L37.9439 38.2561C38.1633 39.0332 38.2812 39.9644 38.2812 41.0625H40.2812ZM39.8715 37.7232C39.6031 36.731 39.1897 35.8574 38.6116 35.1286L37.0446 36.3714C37.4249 36.8509 37.7303 37.4669 37.941 38.2456L39.8715 37.7232ZM38.6116 35.1286C38.0316 34.3972 37.311 33.8414 36.4597 33.4729L35.6653 35.3083C36.2098 35.544 36.6663 35.8944 37.0446 36.3714L38.6116 35.1286ZM36.4712 33.4779C35.6231 33.0982 34.6776 32.9219 33.6562 32.9219V34.9219C34.4474 34.9219 35.106 35.058 35.6538 35.3033L36.4712 33.4779ZM33.6562 32.9219H28.5625V34.9219H33.6562V32.9219ZM29.5625 33.9219V30.25H27.5625V33.9219H29.5625ZM28.5625 31.25H33.6562V29.25H28.5625V31.25ZM33.6562 31.25C35.0611 31.25 36.3201 31.4901 37.4462 31.9555L38.21 30.107C36.8153 29.5307 35.293 29.25 33.6562 29.25V31.25ZM37.4554 31.9592C38.5995 32.4187 39.5796 33.0751 40.4063 33.9297L41.8437 32.5391C40.8162 31.477 39.5984 30.6646 38.2008 30.1033L37.4554 31.9592ZM40.4063 33.9297C41.2316 34.7828 41.8741 35.8092 42.3293 37.023L44.202 36.3208C43.6571 34.8678 42.8725 33.6026 41.8437 32.5391L40.4063 33.9297ZM42.3327 37.0318C42.7928 38.2244 43.0312 39.5741 43.0312 41.0938H45.0312C45.0312 39.3634 44.7593 37.7652 44.1986 36.3119L42.3327 37.0318ZM43.0312 41.0938V42.1719H45.0312V41.0938H43.0312ZM43.0312 42.1719C43.0312 43.6801 42.7931 45.031 42.3317 46.2362L44.1995 46.9513C44.759 45.4899 45.0312 43.8928 45.0312 42.1719H43.0312ZM42.3293 46.2426C41.8741 47.4564 41.2316 48.4828 40.4063 49.336L41.8437 50.7265C42.8725 49.663 43.6571 48.3978 44.202 46.9449L42.3293 46.2426ZM40.4061 49.3361C39.5909 50.1791 38.6103 50.837 37.4515 51.308L38.2047 53.1608C39.6085 52.5901 40.8257 51.7793 41.8439 50.7264L40.4061 49.3361ZM37.4554 51.3064C36.3171 51.7636 35.0393 52 33.6094 52V54C35.2628 54 36.7975 53.7259 38.2008 53.1623L37.4554 51.3064ZM30.3125 30.25V53H32.3125V30.25H30.3125ZM31.3125 52H26.625V54H31.3125V52ZM27.625 53V30.25H25.625V53H27.625ZM26.625 31.25H31.3125V29.25H26.625V31.25Z" fill="black" mask="url(#path-4-outside-2_4013_153)"/>
</svg>
